<svg width="792" height="728" viewBox="0 0 792 728" fill="none" xmlns="http://www.w3.org/2000/svg">
<path d="M1013.89 -379.559C942.018 -281.383 850.786 -289.16 771.528 -341.984C692.271 -394.809 620.126 -487.797 543.126 -554.288C478.573 -610.029 410.513 -647.013 341.32 -664.044C242.285 -688.42 130.894 -662.118 59.2749 -502.813C-20.4864 -325.327 -19.3571 -3.05132 61.5662 162.062C102.752 246.097 157.691 287.866 205.161 353.791C252.631 419.718 295.885 528.454 289.89 654.099C284.339 770.308 137.79 810.652 90.9985 866C54.8397 908.763 111.215 1003.79 105.603 1093.42C100.172 1180.12 135.939 1248.68 170.483 1287.87C283.174 1415.72 424.37 1416.6 540.448 1290.18C581.834 1245.08 620.126 1184.82 663.355 1149.87C776.863 1058.03 899.014 1153.99 1017.22 1190.2C1117.26 1220.83 1220.53 1207.25 1319.3 1150.5C1378.6 1116.42 1438.42 1063.79 1481.2 964.932C1512.06 893.599 1531.97 803.018 1550.72 713.559C1570.71 618.188 1590.01 522.101 1608.59 425.327C1619.73 367.223 1630.73 308.007 1634.33 245.747C1640.81 132.896 1622.2 20.9622 1596 -74.7297C1533.8 -301.979 1425.74 -462.719 1306.75 -504.91C1187.76 -547.101 1060.07 -470.054 964.744 -298.714" fill="#E71338"/>
</svg>
