<svg width="748" height="728" viewBox="0 0 748 728" fill="none" xmlns="http://www.w3.org/2000/svg">
<path d="M545.524 841.925C640.013 856.979 726.061 905.378 807.573 956.84C889.091 1008.3 969.407 1064.23 1059.53 1097.04C1117.51 1118.08 1185.44 1127.97 1238.04 1093.95C1288.66 1061.19 1311.2 997.166 1326.27 937.077C1337.52 891.861 1346.76 843.968 1335.16 799.09C1327.13 767.917 1309.62 740.481 1298.82 710.263C1261.21 605.155 1310.08 486.548 1374.52 395.6C1404.73 352.943 1438.71 312.837 1463.57 266.501C1488.44 220.165 1503.77 165.734 1492.63 114.316C1481.61 63.2599 1446.05 21.9635 1405.93 -8.93358C1324.43 -71.6434 1222.99 -98.625 1123.34 -118.753C902.763 -163.359 677.895 -181.082 453.591 -198.64C370.601 -205.144 287.229 -211.667 204.09 -205.245C157.915 -201.67 109.678 -193.106 72.9953 -163.145C26.4064 -125.194 27.9467 -72.7989 49.6338 -15.9553C42.0034 86 112.346 138.578 133.897 238.865C145.745 294.073 141.003 387 108.503 496C40.192 595.142 64.7949 560 5.89672 700.865C-7.09997 783.417 -0.555536 866.514 64.7949 913.862C133.299 963.475 235.498 970.03 297.412 908.163C361.187 844.295 462.116 828.627 545.524 841.925Z" fill="#73C4FF"/>
</svg>
