<?xml version="1.0"?>
<svg xmlns="http://www.w3.org/2000/svg" xmlns:xlink="http://www.w3.org/1999/xlink" version="1.1"
	xml:space="preserve">
	<defs>
		<symbol id="gal-ochka" width="100%" height="100%" viewBox="0 0 12 10">
			<path d="M6.23497 8.79934C5.9649 9.16589 5.54433 9.39118 5.0896 9.41357C4.63487 9.43619 4.19445 9.25292 3.88975 8.91452L1.15929 5.88444C0.725328 5.40316 0.763876 4.66128 1.24515 4.22732C1.72689 3.79336 2.46831 3.83214 2.90227 4.31365L4.83407 6.45758C4.8627 6.48944 4.90425 6.50652 4.94695 6.50444C4.98988 6.50236 5.02912 6.4809 5.05475 6.44673L9.02546 1.06128C9.40979 0.539605 10.1443 0.428577 10.6662 0.813137C11.1876 1.1977 11.2984 1.93219 10.9139 2.45363L6.23497 8.79934Z" fill="currentColor" />
		</symbol>
		<symbol id="cross" width="100%" height="100%" viewBox="0 0 8 8">
			<path d="M1 1L4 4M4 4L7 1M4 4L1 7M4 4L7 7" fill="none" stroke="currentColor" stroke-width="1.5" stroke-linecap="round" stroke-linejoin="round" />
		</symbol>
		<symbol id="plus" width="100%" height="100%" viewBox="0 0 12 12">
			<path d="M6 1V6M6 11V6M6 6H1M6 6H11" fill="none" stroke="currentColor" stroke-width="1.5" stroke-linecap="round" stroke-linejoin="round" />
		</symbol>
		<symbol id="to-down" width="100%" height="100%" viewBox="0 0 10 6">
			<path d="M1 1L5 5L9 1" fill="none" stroke="currentColor" stroke-width="1.5" stroke-linecap="round" stroke-linejoin="round" />
		</symbol>
		<symbol id="window-arrow-right" width="100%" height="100%" viewBox="0 0 14 14">
			<path d="M1 7H13M13 7L7 1M13 7L7 13" fill="none" stroke="currentColor" stroke-width="1.5" stroke-linecap="round" stroke-linejoin="round" />
		</symbol>
		<symbol id="window-arrow-left" width="100%" height="100%" viewBox="0 0 14 14">
			<path d="M13 7H1M1 7L7 1M1 7L7 13" fill="none" stroke="currentColor" stroke-width="1.5" stroke-linecap="round" stroke-linejoin="round" />
		</symbol>
		<symbol id="refresh" width="100%" height="100%" viewBox="0 0 14 14">
			<path fill-rule="evenodd" clip-rule="evenodd" d="M2.25 7C2.25 4.37665 4.37665 2.25 7 2.25C8.56591 2.25 9.95589 3.00775 10.8216 4.17835L9 6H14V1L11.8911 3.10888C10.7465 1.67203 8.98143 0.75 7 0.75C3.54822 0.75 0.75 3.54822 0.75 7C0.75 10.4518 3.54822 13.25 7 13.25C9.42987 13.25 11.5345 11.8632 12.5681 9.84138C12.7566 9.47256 12.6105 9.02073 12.2417 8.8322C11.8729 8.64366 11.421 8.7898 11.2325 9.15862C10.4453 10.6985 8.84481 11.75 7 11.75C4.37665 11.75 2.25 9.62335 2.25 7Z" fill="currentColor" />
		</symbol>
		<symbol id="lock" width="100%" height="100%" viewBox="0 0 8 11">
			<path fill-rule="evenodd" clip-rule="evenodd" d="M4 0C2.61929 0 1.5 1.11929 1.5 2.5V3.5H1C0.447715 3.5 0 3.94772 0 4.5V9.5C0 10.0523 0.447715 10.5 1 10.5H7C7.55228 10.5 8 10.0523 8 9.5V4.5C8 3.94772 7.55228 3.5 7 3.5H6.5V2.5C6.5 1.11929 5.38071 0 4 0ZM5.5 3.5V2.5C5.5 1.67157 4.82843 1 4 1C3.17157 1 2.5 1.67157 2.5 2.5V3.5H5.5Z" fill="currentColor" />
		</symbol>
		<symbol id="dots-vertical" width="100%" height="100%" viewBox="0 0 3 14">
			<path fill-rule="evenodd" clip-rule="evenodd" d="M3 2C3 2.82843 2.32843 3.5 1.5 3.5C0.671573 3.5 0 2.82843 0 2C0 1.17157 0.671573 0.5 1.5 0.5C2.32843 0.5 3 1.17157 3 2ZM3 7.25C3 8.07843 2.32843 8.75 1.5 8.75C0.671573 8.75 0 8.07843 0 7.25C0 6.42157 0.671573 5.75 1.5 5.75C2.32843 5.75 3 6.42157 3 7.25ZM1.5 14C2.32843 14 3 13.3284 3 12.5C3 11.6716 2.32843 11 1.5 11C0.671573 11 0 11.6716 0 12.5C0 13.3284 0.671573 14 1.5 14Z" fill="currentColor" />
		</symbol>
		<symbol id="window-toggle" width="100%" height="100%" viewBox="0 0 14 14">
			<path fill-rule="evenodd" clip-rule="evenodd" d="M14 0H0V14H14V0ZM9 2H2V12H9V2Z" fill="currentColor" />
		</symbol>
		<symbol id="extention" width="100%" height="100%" viewBox="0 0 15 15">
			<path fill-rule="evenodd" clip-rule="evenodd" d="M7.5 3H10C11.1046 3 12 3.89543 12 5V7.5H13.5C14.3284 7.5 15 8.17157 15 9C15 9.82843 14.3284 10.5 13.5 10.5H12V13C12 14.1046 11.1046 15 10 15H7.5V13.5C7.5 12.6716 6.82843 12 6 12C5.17157 12 4.5 12.6716 4.5 13.5V15H2C0.895431 15 0 14.1046 0 13V10.5H1.5C2.32843 10.5 3 9.82843 3 9C3 8.17157 2.32843 7.5 1.5 7.5H0V5C0 3.89543 0.895431 3 2 3H4.5V2C4.5 1.17157 5.17157 0.5 6 0.5C6.82843 0.5 7.5 1.17157 7.5 2V3Z" fill="currentColor" />
		</symbol>
		<symbol id="star" width="100%" height="100%" viewBox="0 0 14 14">
			<path fill-rule="evenodd" clip-rule="evenodd" d="M6.38212 0.880047C6.5767 0.281196 7.42392 0.281194 7.6185 0.880047L8.91374 4.8664H13.1052C13.7349 4.8664 13.9967 5.67216 13.4873 6.04226L10.0963 8.50596L11.3916 12.4923C11.5861 13.0912 10.9007 13.5891 10.3913 13.219L7.00031 10.7553L3.60932 13.219C3.09991 13.5891 2.41449 13.0912 2.60907 12.4923L3.90432 8.50596L0.513326 6.04226C0.00391331 5.67215 0.265715 4.8664 0.895386 4.8664H5.08688L6.38212 0.880047ZM7.00031 3.02255L6.14099 5.66726C6.05397 5.93507 5.8044 6.1164 5.52281 6.1164H2.742L4.99172 7.75092C5.21954 7.91644 5.31486 8.20982 5.22785 8.47764L4.36853 11.1223L6.61825 9.48783C6.84607 9.32231 7.15456 9.32231 7.38237 9.48783L9.6321 11.1223L8.77278 8.47764C8.68576 8.20982 8.78109 7.91643 9.0089 7.75092L11.2586 6.1164H8.47782C8.19622 6.1164 7.94665 5.93507 7.85963 5.66726L7.00031 3.02255Z" fill="currentColor" />
		</symbol>
		<symbol id="share" width="100%" height="100%" viewBox="0 0 12 15">
			<path fill-rule="evenodd" clip-rule="evenodd" d="M6.44194 0.558058C6.19786 0.313981 5.80214 0.313981 5.55806 0.558058L3.55806 2.55806C3.31398 2.80214 3.31398 3.19786 3.55806 3.44194C3.80214 3.68602 4.19786 3.68602 4.44194 3.44194L5.375 2.50888V9C5.375 9.34518 5.65482 9.625 6 9.625C6.34518 9.625 6.625 9.34518 6.625 9V2.50888L7.55806 3.44194C7.80214 3.68602 8.19786 3.68602 8.44194 3.44194C8.68602 3.19786 8.68602 2.80214 8.44194 2.55806L6.44194 0.558058ZM1.625 6.5C1.625 6.01675 2.01675 5.625 2.5 5.625H3.5C3.84518 5.625 4.125 5.34518 4.125 5C4.125 4.65482 3.84518 4.375 3.5 4.375H2.5C1.32639 4.375 0.375 5.3264 0.375 6.5V12.5C0.375 13.6736 1.32639 14.625 2.5 14.625H9.5C10.6736 14.625 11.625 13.6736 11.625 12.5V6.5C11.625 5.3264 10.6736 4.375 9.5 4.375H8.5C8.15482 4.375 7.875 4.65482 7.875 5C7.875 5.34518 8.15482 5.625 8.5 5.625H9.5C9.98325 5.625 10.375 6.01675 10.375 6.5V12.5C10.375 12.9832 9.98325 13.375 9.5 13.375H2.5C2.01675 13.375 1.625 12.9832 1.625 12.5V6.5Z" fill="currentColor" />
		</symbol>
		<symbol id="menu" width="100%" height="100%" viewBox="0 0 20 18">
			<path fill-rule="evenodd" clip-rule="evenodd" d="M0.199951 2.0001C0.199951 1.2269 0.826752 0.600098 1.59995 0.600098H18.4C19.1732 0.600098 19.8 1.2269 19.8 2.0001C19.8 2.7733 19.1732 3.4001 18.4 3.4001H1.59995C0.826752 3.4001 0.199951 2.7733 0.199951 2.0001Z" fill="currentColor" />
			<path fill-rule="evenodd" clip-rule="evenodd" d="M0.199951 9.0001C0.199951 8.2269 0.826752 7.6001 1.59995 7.6001H18.4C19.1732 7.6001 19.8 8.2269 19.8 9.0001C19.8 9.7733 19.1732 10.4001 18.4 10.4001H1.59995C0.826752 10.4001 0.199951 9.7733 0.199951 9.0001Z" fill="currentColor" />
			<path fill-rule="evenodd" clip-rule="evenodd" d="M0.199951 16.0001C0.199951 15.2269 0.826752 14.6001 1.59995 14.6001H18.4C19.1732 14.6001 19.8 15.2269 19.8 16.0001C19.8 16.7733 19.1732 17.4001 18.4 17.4001H1.59995C0.826752 17.4001 0.199951 16.7733 0.199951 16.0001Z" fill="currentColor" />
		</symbol>
		<symbol id="address" width="100%" height="100%" viewBox="0 0 20 24">
			<path d="M9.65847 0.00598635C4.8902 0.173294 0.928941 3.89343 0.471305 8.64202C0.37781 9.59174 0.431939 10.5119 0.599246 11.3928C0.599246 11.3928 0.614009 11.4961 0.663217 11.6929C0.810842 12.3523 1.03228 12.992 1.30784 13.5924C2.2674 15.8658 4.48669 19.6696 9.46656 23.808C9.77165 24.0639 10.2194 24.0639 10.5295 23.808C15.5093 19.6745 17.7286 15.8707 18.6931 13.5874C18.9736 12.9871 19.1901 12.3523 19.3377 11.688C19.382 11.4961 19.4017 11.3878 19.4017 11.3878C19.5149 10.7973 19.5739 10.1921 19.5739 9.57205C19.5739 4.169 15.1009 -0.185925 9.65847 0.00598635ZM9.998 14.3354C7.42934 14.3354 5.34783 12.2539 5.34783 9.68523C5.34783 7.11657 7.42934 5.03506 9.998 5.03506C12.5667 5.03506 14.6482 7.11657 14.6482 9.68523C14.6482 12.2539 12.5667 14.3354 9.998 14.3354Z" fill="currentColor" />
		</symbol>
		<symbol id="phone" width="100%" height="100%" viewBox="0 0 24 24">
			<path d="M12.8 6.40002C12.3584 6.40002 12 6.75842 12 7.20002C12 7.64162 12.3584 8.00002 12.8 8.00002C14.5648 8.00002 16 9.43522 16 11.2C16 11.6416 16.3584 12 16.8 12C17.2416 12 17.6 11.6416 17.6 11.2C17.6 8.55362 15.4464 6.40002 12.8 6.40002Z" fill="currentColor" />
			<path d="M12.8 3.19995C12.3584 3.19995 12 3.55835 12 3.99995C12 4.44155 12.3584 4.79995 12.8 4.79995C16.3296 4.79995 19.2 7.67035 19.2 11.2C19.2 11.6416 19.5584 12 20 12C20.4416 12 20.8 11.6416 20.8 11.2C20.8 6.78875 17.2112 3.19995 12.8 3.19995Z" fill="currentColor" />
			<path d="M12.8 0C12.3584 0 12 0.3584 12 0.8C12 1.2416 12.3584 1.6 12.8 1.6C18.0944 1.6 22.4 5.9056 22.4 11.2C22.4 11.6416 22.7584 12 23.2 12C23.6416 12 24 11.6416 24 11.2C24 5.024 18.9744 0 12.8 0Z" fill="currentColor" />
			<path d="M21.6 17.6C19.2768 17.6 17.064 17.0944 15.024 16.0976C14.832 16.0016 14.6112 15.9904 14.4112 16.0608C14.2096 16.1312 14.0448 16.2784 13.952 16.4688L12.6944 19.072C9.44 17.256 6.7456 14.5632 4.9312 11.3088L7.5328 10.048C7.7248 9.95518 7.8704 9.79038 7.9408 9.58878C8.0096 9.38878 7.9968 9.16798 7.9024 8.97598C6.9056 6.93598 6.4 4.72318 6.4 2.39998C6.4 1.95838 6.0416 1.59998 5.6 1.59998H0.8C0.3584 1.59998 0 1.95838 0 2.39998C0 14.3104 9.6896 24 21.6 24C22.0416 24 22.4 23.6416 22.4 23.2V18.4C22.4 17.9584 22.0416 17.6 21.6 17.6Z" fill="currentColor" />
		</symbol>
		<symbol id="to-left" width="100%" height="100%" viewBox="0 0 16 28">
			<path d="M5.42823 14L15.214 4.2142C15.9951 3.43315 15.9951 2.16682 15.214 1.38577C14.433 0.604726 13.1666 0.604726 12.3856 1.38577L1.18559 12.5858C0.404541 13.3668 0.404541 14.6332 1.18559 15.4142L12.3856 26.6142C13.1666 27.3953 14.433 27.3953 15.214 26.6142C15.9951 25.8332 15.9951 24.5668 15.214 23.7858L5.42823 14Z" fill="currentColor"/>
		</symbol>
		<symbol id="to-right" width="100%" height="100%" viewBox="0 0 16 28">
			<path d="M10.5718 14L0.785982 4.2142C0.00493316 3.43315 0.00493316 2.16682 0.785982 1.38577C1.56703 0.604726 2.83336 0.604726 3.61441 1.38577L14.8144 12.5858C15.5955 13.3668 15.5955 14.6332 14.8144 15.4142L3.61441 26.6142C2.83336 27.3953 1.56703 27.3953 0.785982 26.6142C0.00493316 25.8332 0.00493316 24.5668 0.785982 23.7858L10.5718 14Z" fill="currentColor"/>
		</symbol>
	</defs>
</svg>