<svg width="525" height="148" viewBox="0 0 525 148" fill="none" xmlns="http://www.w3.org/2000/svg">
	<path d="M187.648 55.6812V38.48C187.648 15.6125 174.508 2.05383 152.271 2.05383C130.236 2.05383 117.501 15.2077 117.501 38.48V41.5155C117.501 61.9546 123.767 72.4777 139.535 78.7511L148.43 81.9889C163.794 88.2623 167.837 93.3215 167.837 104.249V112.749C167.837 123.677 162.177 130.152 152.473 130.152C142.972 130.152 137.312 123.677 137.312 112.749V94.131H117.096V111.332C117.096 134.402 129.832 147.758 152.271 147.758C174.71 147.758 188.053 134.2 188.053 111.332V107.487C188.053 86.6434 181.988 76.7274 165.613 70.454L157.527 67.4185C141.557 60.9427 137.716 55.8836 137.716 44.9557V37.0634C137.716 26.1356 143.174 19.6598 152.473 19.6598C161.772 19.6598 167.433 26.1356 167.433 37.0634V55.6812H187.648ZM260.31 4.07751H193.599V21.6835H216.847V145.735H237.062V21.6835H260.31V4.07751ZM268.525 4.07751V145.735H302.285C322.905 145.735 338.268 135.616 338.268 110.725V39.0871C338.268 14.3982 322.905 4.07751 302.285 4.07751H268.525ZM288.74 21.6835H302.083C310.573 21.6835 317.851 25.7308 317.851 38.8847V110.927C317.851 124.081 310.573 128.129 302.083 128.129H288.74V21.6835ZM369.084 3.87514H348.869V145.735H369.084V83.8102H372.319L397.992 145.735H419.623L388.895 74.9061L416.388 3.87514H394.758L372.319 66.0019H369.084V3.87514ZM426.651 4.07751V145.735H446.866V4.07751H426.651ZM520.704 4.07751H453.992V21.6835H477.24V145.735H497.456V21.6835H520.704V4.07751Z" fill="#302B44" />
	<path d="M39.3655 142.682L38.2344 145.735H41.4873H53.1748H54.749L55.2965 144.257L106.217 6.8286L107.348 3.77551H104.095H92.4077H90.8335L90.2859 5.25304L39.3655 142.682Z" fill="#302B44" stroke="#302B44" stroke-width="6" />
	<path d="M4.66688 142.682L3.53564 145.735H6.78856H18.4761H20.0503L20.5978 144.257L71.518 6.8286L72.6492 3.77551H69.3963H57.7088H56.1346L55.5871 5.25304L4.66688 142.682Z" fill="#302B44" stroke="#302B44" stroke-width="6" />
</svg>
