<svg width="696" height="196" viewBox="0 0 696 196" fill="none" xmlns="http://www.w3.org/2000/svg">
<path d="M248.768 73.74V50.96C248.768 20.676 231.348 2.71999 201.868 2.71999C172.656 2.71999 155.772 20.14 155.772 50.96V54.98C155.772 82.048 164.08 95.984 184.984 104.292L196.776 108.58C217.144 116.888 222.504 123.588 222.504 138.06V149.316C222.504 163.788 215 172.364 202.136 172.364C189.54 172.364 182.036 163.788 182.036 149.316V124.66H155.236V147.44C155.236 177.992 172.12 195.68 201.868 195.68C231.616 195.68 249.304 177.724 249.304 147.44V142.348C249.304 114.744 241.264 101.612 219.556 93.304L208.836 89.284C187.664 80.708 182.572 74.008 182.572 59.536V49.084C182.572 34.612 189.808 26.036 202.136 26.036C214.464 26.036 221.968 34.612 221.968 49.084V73.74H248.768ZM345.097 5.39999H256.657V28.716H287.477V193H314.277V28.716H345.097V5.39999ZM355.987 5.39999V193H400.743C428.079 193 448.447 179.6 448.447 146.636V51.764C448.447 19.068 428.079 5.39999 400.743 5.39999H355.987ZM382.787 28.716H400.475C411.731 28.716 421.379 34.076 421.379 51.496V146.904C421.379 164.324 411.731 169.684 400.475 169.684H382.787V28.716ZM489.3 5.13199H462.5V193H489.3V110.992H493.588L527.624 193H556.3L515.564 99.2L552.012 5.13199H523.336L493.588 87.408H489.3V5.13199ZM565.617 5.39999V193H592.417V5.39999H565.617ZM690.304 5.39999H601.864V28.716H632.684V193H659.484V28.716H690.304V5.39999Z" fill="#302B44"/>
<path d="M52.1872 188.957L50.6876 193H55H70.4944H72.5813L73.3071 191.043L140.813 9.04328L142.312 5H138H122.506H120.419L119.693 6.95672L52.1872 188.957Z" fill="#302B44" stroke="#302B44" stroke-width="6"/>
<path d="M6.18725 188.957L4.68756 193H9H24.4944H26.5813L27.3071 191.043L94.8128 9.04328L96.3124 5H92H76.5057H74.4187L73.6929 6.95672L6.18725 188.957Z" fill="#302B44" stroke="#302B44" stroke-width="6"/>
</svg>
