<svg width="175" height="31" viewBox="0 0 175 31" fill="none" xmlns="http://www.w3.org/2000/svg">
<path d="M0.244344 12.36H4.44434V7.446C4.44434 5.178 5.57834 3.834 7.55234 3.834C9.48434 3.834 10.6183 5.178 10.6183 7.446V9.924C10.6183 12.906 9.19034 13.998 6.08234 15.93L5.45234 16.308C2.00834 18.492 0.244344 20.466 0.244344 25.632V30H14.6083V26.01H4.44434V24.876C4.44434 21.936 5.87234 20.76 9.27434 18.618L9.94634 18.198C12.9283 16.35 14.8183 13.2 14.8183 8.37V7.74C14.8183 2.91 12.1723 0.179998 7.59434 0.179998C2.97434 0.179998 0.244344 2.994 0.244344 7.74V12.36ZM17.0617 7.74V22.86C17.0617 28.11 20.1697 30.42 24.3697 30.42C28.6537 30.42 31.8457 28.068 31.8457 22.86V7.74C31.8457 2.532 28.6537 0.179998 24.3697 0.179998C20.1697 0.179998 17.0617 2.448 17.0617 7.74ZM21.2617 7.446C21.2617 4.758 22.8157 3.834 24.4537 3.834C26.0497 3.834 27.6457 4.758 27.6457 7.446V23.154C27.6457 25.842 26.0497 26.766 24.4537 26.766C22.8157 26.766 21.2617 25.842 21.2617 23.154V7.446ZM33.9592 12.36H38.1592V7.446C38.1592 5.178 39.2932 3.834 41.2672 3.834C43.1992 3.834 44.3332 5.178 44.3332 7.446V9.924C44.3332 12.906 42.9052 13.998 39.7972 15.93L39.1672 16.308C35.7232 18.492 33.9592 20.466 33.9592 25.632V30H48.3232V26.01H38.1592V24.876C38.1592 21.936 39.5872 20.76 42.9892 18.618L43.6612 18.198C46.6432 16.35 48.5332 13.2 48.5332 8.37V7.74C48.5332 2.91 45.8872 0.179998 41.3092 0.179998C36.6892 0.179998 33.9592 2.994 33.9592 7.74V12.36ZM50.7346 12.36H54.9346V7.446C54.9346 5.178 56.0686 3.834 58.0426 3.834C59.9746 3.834 61.1086 5.178 61.1086 7.446V9.924C61.1086 12.906 59.6806 13.998 56.5726 15.93L55.9426 16.308C52.4986 18.492 50.7346 20.466 50.7346 25.632V30H65.0986V26.01H54.9346V24.876C54.9346 21.936 56.3626 20.76 59.7646 18.618L60.4366 18.198C63.4186 16.35 65.3086 13.2 65.3086 8.37V7.74C65.3086 2.91 62.6626 0.179998 58.0846 0.179998C53.4646 0.179998 50.7346 2.994 50.7346 7.74V12.36ZM94.936 20.55C95.356 19.654 95.762 18.87 96.154 18.198C96.574 17.526 96.98 16.966 97.372 16.518H72.886V14.754H97.372C96.98 14.278 96.574 13.704 96.154 13.032C95.762 12.36 95.356 11.59 94.936 10.722H96.406C98.17 12.766 100.018 14.278 101.95 15.258V16.014C100.018 16.966 98.17 18.478 96.406 20.55H94.936ZM109.51 12.36H113.71V7.446C113.71 5.178 114.844 3.834 116.818 3.834C118.75 3.834 119.884 5.178 119.884 7.446V9.924C119.884 12.906 118.456 13.998 115.348 15.93L114.718 16.308C111.274 18.492 109.51 20.466 109.51 25.632V30H123.874V26.01H113.71V24.876C113.71 21.936 115.138 20.76 118.54 18.618L119.212 18.198C122.194 16.35 124.084 13.2 124.084 8.37V7.74C124.084 2.91 121.438 0.179998 116.86 0.179998C112.24 0.179998 109.51 2.994 109.51 7.74V12.36ZM126.327 7.74V22.86C126.327 28.11 129.435 30.42 133.635 30.42C137.919 30.42 141.111 28.068 141.111 22.86V7.74C141.111 2.532 137.919 0.179998 133.635 0.179998C129.435 0.179998 126.327 2.448 126.327 7.74ZM130.527 7.446C130.527 4.758 132.081 3.834 133.719 3.834C135.315 3.834 136.911 4.758 136.911 7.446V23.154C136.911 25.842 135.315 26.766 133.719 26.766C132.081 26.766 130.527 25.842 130.527 23.154V7.446ZM143.225 12.36H147.425V7.446C147.425 5.178 148.559 3.834 150.533 3.834C152.465 3.834 153.599 5.178 153.599 7.446V9.924C153.599 12.906 152.171 13.998 149.063 15.93L148.433 16.308C144.989 18.492 143.225 20.466 143.225 25.632V30H157.589V26.01H147.425V24.876C147.425 21.936 148.853 20.76 152.255 18.618L152.927 18.198C155.909 16.35 157.799 13.2 157.799 8.37V7.74C157.799 2.91 155.153 0.179998 150.575 0.179998C145.955 0.179998 143.225 2.994 143.225 7.74V12.36ZM170.584 7.446V9C170.584 12.318 169.45 13.662 166.132 13.662H165.166V16.896H166.132C169.576 16.896 170.584 18.114 170.584 21.558V23.154C170.584 25.464 169.408 26.766 167.392 26.766C165.376 26.766 164.2 25.464 164.2 23.154V19.92H160V22.86C160 27.606 162.772 30.42 167.476 30.42C172.096 30.42 174.784 27.69 174.784 22.86V22.23C174.784 17.946 173.02 15.762 170.626 15.384V15.09C172.978 14.628 174.784 12.528 174.784 8.328V7.74C174.784 2.91 172.096 0.179998 167.476 0.179998C162.772 0.179998 160 2.994 160 7.74V10.68H164.2V7.446C164.2 5.136 165.376 3.834 167.392 3.834C169.408 3.834 170.584 5.136 170.584 7.446Z" fill="black"/>
<path d="M0.244344 12.36H4.44434V7.446C4.44434 5.178 5.57834 3.834 7.55234 3.834C9.48434 3.834 10.6183 5.178 10.6183 7.446V9.924C10.6183 12.906 9.19034 13.998 6.08234 15.93L5.45234 16.308C2.00834 18.492 0.244344 20.466 0.244344 25.632V30H14.6083V26.01H4.44434V24.876C4.44434 21.936 5.87234 20.76 9.27434 18.618L9.94634 18.198C12.9283 16.35 14.8183 13.2 14.8183 8.37V7.74C14.8183 2.91 12.1723 0.179998 7.59434 0.179998C2.97434 0.179998 0.244344 2.994 0.244344 7.74V12.36ZM17.0617 7.74V22.86C17.0617 28.11 20.1697 30.42 24.3697 30.42C28.6537 30.42 31.8457 28.068 31.8457 22.86V7.74C31.8457 2.532 28.6537 0.179998 24.3697 0.179998C20.1697 0.179998 17.0617 2.448 17.0617 7.74ZM21.2617 7.446C21.2617 4.758 22.8157 3.834 24.4537 3.834C26.0497 3.834 27.6457 4.758 27.6457 7.446V23.154C27.6457 25.842 26.0497 26.766 24.4537 26.766C22.8157 26.766 21.2617 25.842 21.2617 23.154V7.446ZM33.9592 12.36H38.1592V7.446C38.1592 5.178 39.2932 3.834 41.2672 3.834C43.1992 3.834 44.3332 5.178 44.3332 7.446V9.924C44.3332 12.906 42.9052 13.998 39.7972 15.93L39.1672 16.308C35.7232 18.492 33.9592 20.466 33.9592 25.632V30H48.3232V26.01H38.1592V24.876C38.1592 21.936 39.5872 20.76 42.9892 18.618L43.6612 18.198C46.6432 16.35 48.5332 13.2 48.5332 8.37V7.74C48.5332 2.91 45.8872 0.179998 41.3092 0.179998C36.6892 0.179998 33.9592 2.994 33.9592 7.74V12.36ZM50.7346 12.36H54.9346V7.446C54.9346 5.178 56.0686 3.834 58.0426 3.834C59.9746 3.834 61.1086 5.178 61.1086 7.446V9.924C61.1086 12.906 59.6806 13.998 56.5726 15.93L55.9426 16.308C52.4986 18.492 50.7346 20.466 50.7346 25.632V30H65.0986V26.01H54.9346V24.876C54.9346 21.936 56.3626 20.76 59.7646 18.618L60.4366 18.198C63.4186 16.35 65.3086 13.2 65.3086 8.37V7.74C65.3086 2.91 62.6626 0.179998 58.0846 0.179998C53.4646 0.179998 50.7346 2.994 50.7346 7.74V12.36ZM94.936 20.55C95.356 19.654 95.762 18.87 96.154 18.198C96.574 17.526 96.98 16.966 97.372 16.518H72.886V14.754H97.372C96.98 14.278 96.574 13.704 96.154 13.032C95.762 12.36 95.356 11.59 94.936 10.722H96.406C98.17 12.766 100.018 14.278 101.95 15.258V16.014C100.018 16.966 98.17 18.478 96.406 20.55H94.936ZM109.51 12.36H113.71V7.446C113.71 5.178 114.844 3.834 116.818 3.834C118.75 3.834 119.884 5.178 119.884 7.446V9.924C119.884 12.906 118.456 13.998 115.348 15.93L114.718 16.308C111.274 18.492 109.51 20.466 109.51 25.632V30H123.874V26.01H113.71V24.876C113.71 21.936 115.138 20.76 118.54 18.618L119.212 18.198C122.194 16.35 124.084 13.2 124.084 8.37V7.74C124.084 2.91 121.438 0.179998 116.86 0.179998C112.24 0.179998 109.51 2.994 109.51 7.74V12.36ZM126.327 7.74V22.86C126.327 28.11 129.435 30.42 133.635 30.42C137.919 30.42 141.111 28.068 141.111 22.86V7.74C141.111 2.532 137.919 0.179998 133.635 0.179998C129.435 0.179998 126.327 2.448 126.327 7.74ZM130.527 7.446C130.527 4.758 132.081 3.834 133.719 3.834C135.315 3.834 136.911 4.758 136.911 7.446V23.154C136.911 25.842 135.315 26.766 133.719 26.766C132.081 26.766 130.527 25.842 130.527 23.154V7.446ZM143.225 12.36H147.425V7.446C147.425 5.178 148.559 3.834 150.533 3.834C152.465 3.834 153.599 5.178 153.599 7.446V9.924C153.599 12.906 152.171 13.998 149.063 15.93L148.433 16.308C144.989 18.492 143.225 20.466 143.225 25.632V30H157.589V26.01H147.425V24.876C147.425 21.936 148.853 20.76 152.255 18.618L152.927 18.198C155.909 16.35 157.799 13.2 157.799 8.37V7.74C157.799 2.91 155.153 0.179998 150.575 0.179998C145.955 0.179998 143.225 2.994 143.225 7.74V12.36ZM170.584 7.446V9C170.584 12.318 169.45 13.662 166.132 13.662H165.166V16.896H166.132C169.576 16.896 170.584 18.114 170.584 21.558V23.154C170.584 25.464 169.408 26.766 167.392 26.766C165.376 26.766 164.2 25.464 164.2 23.154V19.92H160V22.86C160 27.606 162.772 30.42 167.476 30.42C172.096 30.42 174.784 27.69 174.784 22.86V22.23C174.784 17.946 173.02 15.762 170.626 15.384V15.09C172.978 14.628 174.784 12.528 174.784 8.328V7.74C174.784 2.91 172.096 0.179998 167.476 0.179998C162.772 0.179998 160 2.994 160 7.74V10.68H164.2V7.446C164.2 5.136 165.376 3.834 167.392 3.834C169.408 3.834 170.584 5.136 170.584 7.446Z" fill="url(#paint0_linear_89_127)" fill-opacity="0.6"/>
<path d="M0.244344 12.36H4.44434V7.446C4.44434 5.178 5.57834 3.834 7.55234 3.834C9.48434 3.834 10.6183 5.178 10.6183 7.446V9.924C10.6183 12.906 9.19034 13.998 6.08234 15.93L5.45234 16.308C2.00834 18.492 0.244344 20.466 0.244344 25.632V30H14.6083V26.01H4.44434V24.876C4.44434 21.936 5.87234 20.76 9.27434 18.618L9.94634 18.198C12.9283 16.35 14.8183 13.2 14.8183 8.37V7.74C14.8183 2.91 12.1723 0.179998 7.59434 0.179998C2.97434 0.179998 0.244344 2.994 0.244344 7.74V12.36ZM17.0617 7.74V22.86C17.0617 28.11 20.1697 30.42 24.3697 30.42C28.6537 30.42 31.8457 28.068 31.8457 22.86V7.74C31.8457 2.532 28.6537 0.179998 24.3697 0.179998C20.1697 0.179998 17.0617 2.448 17.0617 7.74ZM21.2617 7.446C21.2617 4.758 22.8157 3.834 24.4537 3.834C26.0497 3.834 27.6457 4.758 27.6457 7.446V23.154C27.6457 25.842 26.0497 26.766 24.4537 26.766C22.8157 26.766 21.2617 25.842 21.2617 23.154V7.446ZM33.9592 12.36H38.1592V7.446C38.1592 5.178 39.2932 3.834 41.2672 3.834C43.1992 3.834 44.3332 5.178 44.3332 7.446V9.924C44.3332 12.906 42.9052 13.998 39.7972 15.93L39.1672 16.308C35.7232 18.492 33.9592 20.466 33.9592 25.632V30H48.3232V26.01H38.1592V24.876C38.1592 21.936 39.5872 20.76 42.9892 18.618L43.6612 18.198C46.6432 16.35 48.5332 13.2 48.5332 8.37V7.74C48.5332 2.91 45.8872 0.179998 41.3092 0.179998C36.6892 0.179998 33.9592 2.994 33.9592 7.74V12.36ZM50.7346 12.36H54.9346V7.446C54.9346 5.178 56.0686 3.834 58.0426 3.834C59.9746 3.834 61.1086 5.178 61.1086 7.446V9.924C61.1086 12.906 59.6806 13.998 56.5726 15.93L55.9426 16.308C52.4986 18.492 50.7346 20.466 50.7346 25.632V30H65.0986V26.01H54.9346V24.876C54.9346 21.936 56.3626 20.76 59.7646 18.618L60.4366 18.198C63.4186 16.35 65.3086 13.2 65.3086 8.37V7.74C65.3086 2.91 62.6626 0.179998 58.0846 0.179998C53.4646 0.179998 50.7346 2.994 50.7346 7.74V12.36ZM94.936 20.55C95.356 19.654 95.762 18.87 96.154 18.198C96.574 17.526 96.98 16.966 97.372 16.518H72.886V14.754H97.372C96.98 14.278 96.574 13.704 96.154 13.032C95.762 12.36 95.356 11.59 94.936 10.722H96.406C98.17 12.766 100.018 14.278 101.95 15.258V16.014C100.018 16.966 98.17 18.478 96.406 20.55H94.936ZM109.51 12.36H113.71V7.446C113.71 5.178 114.844 3.834 116.818 3.834C118.75 3.834 119.884 5.178 119.884 7.446V9.924C119.884 12.906 118.456 13.998 115.348 15.93L114.718 16.308C111.274 18.492 109.51 20.466 109.51 25.632V30H123.874V26.01H113.71V24.876C113.71 21.936 115.138 20.76 118.54 18.618L119.212 18.198C122.194 16.35 124.084 13.2 124.084 8.37V7.74C124.084 2.91 121.438 0.179998 116.86 0.179998C112.24 0.179998 109.51 2.994 109.51 7.74V12.36ZM126.327 7.74V22.86C126.327 28.11 129.435 30.42 133.635 30.42C137.919 30.42 141.111 28.068 141.111 22.86V7.74C141.111 2.532 137.919 0.179998 133.635 0.179998C129.435 0.179998 126.327 2.448 126.327 7.74ZM130.527 7.446C130.527 4.758 132.081 3.834 133.719 3.834C135.315 3.834 136.911 4.758 136.911 7.446V23.154C136.911 25.842 135.315 26.766 133.719 26.766C132.081 26.766 130.527 25.842 130.527 23.154V7.446ZM143.225 12.36H147.425V7.446C147.425 5.178 148.559 3.834 150.533 3.834C152.465 3.834 153.599 5.178 153.599 7.446V9.924C153.599 12.906 152.171 13.998 149.063 15.93L148.433 16.308C144.989 18.492 143.225 20.466 143.225 25.632V30H157.589V26.01H147.425V24.876C147.425 21.936 148.853 20.76 152.255 18.618L152.927 18.198C155.909 16.35 157.799 13.2 157.799 8.37V7.74C157.799 2.91 155.153 0.179998 150.575 0.179998C145.955 0.179998 143.225 2.994 143.225 7.74V12.36ZM170.584 7.446V9C170.584 12.318 169.45 13.662 166.132 13.662H165.166V16.896H166.132C169.576 16.896 170.584 18.114 170.584 21.558V23.154C170.584 25.464 169.408 26.766 167.392 26.766C165.376 26.766 164.2 25.464 164.2 23.154V19.92H160V22.86C160 27.606 162.772 30.42 167.476 30.42C172.096 30.42 174.784 27.69 174.784 22.86V22.23C174.784 17.946 173.02 15.762 170.626 15.384V15.09C172.978 14.628 174.784 12.528 174.784 8.328V7.74C174.784 2.91 172.096 0.179998 167.476 0.179998C162.772 0.179998 160 2.994 160 7.74V10.68H164.2V7.446C164.2 5.136 165.376 3.834 167.392 3.834C169.408 3.834 170.584 5.136 170.584 7.446Z" fill="url(#paint1_linear_89_127)" fill-opacity="0.6"/>
<defs>
<linearGradient id="paint0_linear_89_127" x1="-1" y1="-4" x2="90.6119" y2="34.6177" gradientUnits="userSpaceOnUse">
<stop stop-color="#FF6161"/>
<stop offset="1" stop-color="#FF6161" stop-opacity="0"/>
</linearGradient>
<linearGradient id="paint1_linear_89_127" x1="176" y1="30.8108" x2="61.7488" y2="28.4387" gradientUnits="userSpaceOnUse">
<stop stop-color="#75BFF3"/>
<stop offset="1" stop-color="#75BFF3" stop-opacity="0"/>
</linearGradient>
</defs>
</svg>
