<svg width="147" height="31" viewBox="0 0 147 31" fill="none" xmlns="http://www.w3.org/2000/svg">
<path d="M0.107625 12.36H4.30763V7.446C4.30763 5.178 5.44163 3.834 7.41563 3.834C9.34763 3.834 10.4816 5.178 10.4816 7.446V9.924C10.4816 12.906 9.05363 13.998 5.94563 15.93L5.31563 16.308C1.87163 18.492 0.107625 20.466 0.107625 25.632V30H14.4716V26.01H4.30763V24.876C4.30763 21.936 5.73563 20.76 9.13763 18.618L9.80962 18.198C12.7916 16.35 14.6816 13.2 14.6816 8.37V7.74C14.6816 2.91 12.0356 0.179998 7.45763 0.179998C2.83763 0.179998 0.107625 2.994 0.107625 7.74V12.36ZM16.925 7.74V22.86C16.925 28.11 20.033 30.42 24.233 30.42C28.517 30.42 31.709 28.068 31.709 22.86V7.74C31.709 2.532 28.517 0.179998 24.233 0.179998C20.033 0.179998 16.925 2.448 16.925 7.74ZM21.125 7.446C21.125 4.758 22.679 3.834 24.317 3.834C25.913 3.834 27.509 4.758 27.509 7.446V23.154C27.509 25.842 25.913 26.766 24.317 26.766C22.679 26.766 21.125 25.842 21.125 23.154V7.446ZM33.8225 12.36H38.0225V7.446C38.0225 5.178 39.1565 3.834 41.1305 3.834C43.0625 3.834 44.1965 5.178 44.1965 7.446V9.924C44.1965 12.906 42.7685 13.998 39.6605 15.93L39.0305 16.308C35.5865 18.492 33.8225 20.466 33.8225 25.632V30H48.1865V26.01H38.0225V24.876C38.0225 21.936 39.4505 20.76 42.8525 18.618L43.5245 18.198C46.5065 16.35 48.3965 13.2 48.3965 8.37V7.74C48.3965 2.91 45.7505 0.179998 41.1725 0.179998C36.5525 0.179998 33.8225 2.994 33.8225 7.74V12.36ZM50.5979 12.36H54.7979V7.446C54.7979 5.178 55.9319 3.834 57.9059 3.834C59.8379 3.834 60.9719 5.178 60.9719 7.446V9.924C60.9719 12.906 59.5439 13.998 56.4359 15.93L55.8059 16.308C52.3619 18.492 50.5979 20.466 50.5979 25.632V30H64.9619V26.01H54.7979V24.876C54.7979 21.936 56.2259 20.76 59.6279 18.618L60.2999 18.198C63.2819 16.35 65.1719 13.2 65.1719 8.37V7.74C65.1719 2.91 62.5259 0.179998 57.9479 0.179998C53.3279 0.179998 50.5979 2.994 50.5979 7.74V12.36ZM67.5833 16.392L76.4873 18.702V18.996L67.5833 21.39V25.212L79.2593 20.298V17.358L67.5833 12.528V16.392ZM81.6467 12.36H85.8467V7.446C85.8467 5.178 86.9807 3.834 88.9547 3.834C90.8867 3.834 92.0207 5.178 92.0207 7.446V9.924C92.0207 12.906 90.5927 13.998 87.4847 15.93L86.8547 16.308C83.4107 18.492 81.6467 20.466 81.6467 25.632V30H96.0107V26.01H85.8467V24.876C85.8467 21.936 87.2747 20.76 90.6767 18.618L91.3487 18.198C94.3307 16.35 96.2207 13.2 96.2207 8.37V7.74C96.2207 2.91 93.5747 0.179998 88.9967 0.179998C84.3767 0.179998 81.6467 2.994 81.6467 7.74V12.36ZM98.4641 7.74V22.86C98.4641 28.11 101.572 30.42 105.772 30.42C110.056 30.42 113.248 28.068 113.248 22.86V7.74C113.248 2.532 110.056 0.179998 105.772 0.179998C101.572 0.179998 98.4641 2.448 98.4641 7.74ZM102.664 7.446C102.664 4.758 104.218 3.834 105.856 3.834C107.452 3.834 109.048 4.758 109.048 7.446V23.154C109.048 25.842 107.452 26.766 105.856 26.766C104.218 26.766 102.664 25.842 102.664 23.154V7.446ZM115.362 12.36H119.562V7.446C119.562 5.178 120.696 3.834 122.67 3.834C124.602 3.834 125.736 5.178 125.736 7.446V9.924C125.736 12.906 124.308 13.998 121.2 15.93L120.57 16.308C117.126 18.492 115.362 20.466 115.362 25.632V30H129.726V26.01H119.562V24.876C119.562 21.936 120.99 20.76 124.392 18.618L125.064 18.198C128.046 16.35 129.936 13.2 129.936 8.37V7.74C129.936 2.91 127.29 0.179998 122.712 0.179998C118.092 0.179998 115.362 2.994 115.362 7.74V12.36ZM142.721 7.446V9C142.721 12.318 141.587 13.662 138.269 13.662H137.303V16.896H138.269C141.713 16.896 142.721 18.114 142.721 21.558V23.154C142.721 25.464 141.545 26.766 139.529 26.766C137.513 26.766 136.337 25.464 136.337 23.154V19.92H132.137V22.86C132.137 27.606 134.909 30.42 139.613 30.42C144.233 30.42 146.921 27.69 146.921 22.86V22.23C146.921 17.946 145.157 15.762 142.763 15.384V15.09C145.115 14.628 146.921 12.528 146.921 8.328V7.74C146.921 2.91 144.233 0.179998 139.613 0.179998C134.909 0.179998 132.137 2.994 132.137 7.74V10.68H136.337V7.446C136.337 5.136 137.513 3.834 139.529 3.834C141.545 3.834 142.721 5.136 142.721 7.446Z" fill="black"/>
<path d="M0.107625 12.36H4.30763V7.446C4.30763 5.178 5.44163 3.834 7.41563 3.834C9.34763 3.834 10.4816 5.178 10.4816 7.446V9.924C10.4816 12.906 9.05363 13.998 5.94563 15.93L5.31563 16.308C1.87163 18.492 0.107625 20.466 0.107625 25.632V30H14.4716V26.01H4.30763V24.876C4.30763 21.936 5.73563 20.76 9.13763 18.618L9.80962 18.198C12.7916 16.35 14.6816 13.2 14.6816 8.37V7.74C14.6816 2.91 12.0356 0.179998 7.45763 0.179998C2.83763 0.179998 0.107625 2.994 0.107625 7.74V12.36ZM16.925 7.74V22.86C16.925 28.11 20.033 30.42 24.233 30.42C28.517 30.42 31.709 28.068 31.709 22.86V7.74C31.709 2.532 28.517 0.179998 24.233 0.179998C20.033 0.179998 16.925 2.448 16.925 7.74ZM21.125 7.446C21.125 4.758 22.679 3.834 24.317 3.834C25.913 3.834 27.509 4.758 27.509 7.446V23.154C27.509 25.842 25.913 26.766 24.317 26.766C22.679 26.766 21.125 25.842 21.125 23.154V7.446ZM33.8225 12.36H38.0225V7.446C38.0225 5.178 39.1565 3.834 41.1305 3.834C43.0625 3.834 44.1965 5.178 44.1965 7.446V9.924C44.1965 12.906 42.7685 13.998 39.6605 15.93L39.0305 16.308C35.5865 18.492 33.8225 20.466 33.8225 25.632V30H48.1865V26.01H38.0225V24.876C38.0225 21.936 39.4505 20.76 42.8525 18.618L43.5245 18.198C46.5065 16.35 48.3965 13.2 48.3965 8.37V7.74C48.3965 2.91 45.7505 0.179998 41.1725 0.179998C36.5525 0.179998 33.8225 2.994 33.8225 7.74V12.36ZM50.5979 12.36H54.7979V7.446C54.7979 5.178 55.9319 3.834 57.9059 3.834C59.8379 3.834 60.9719 5.178 60.9719 7.446V9.924C60.9719 12.906 59.5439 13.998 56.4359 15.93L55.8059 16.308C52.3619 18.492 50.5979 20.466 50.5979 25.632V30H64.9619V26.01H54.7979V24.876C54.7979 21.936 56.2259 20.76 59.6279 18.618L60.2999 18.198C63.2819 16.35 65.1719 13.2 65.1719 8.37V7.74C65.1719 2.91 62.5259 0.179998 57.9479 0.179998C53.3279 0.179998 50.5979 2.994 50.5979 7.74V12.36ZM67.5833 16.392L76.4873 18.702V18.996L67.5833 21.39V25.212L79.2593 20.298V17.358L67.5833 12.528V16.392ZM81.6467 12.36H85.8467V7.446C85.8467 5.178 86.9807 3.834 88.9547 3.834C90.8867 3.834 92.0207 5.178 92.0207 7.446V9.924C92.0207 12.906 90.5927 13.998 87.4847 15.93L86.8547 16.308C83.4107 18.492 81.6467 20.466 81.6467 25.632V30H96.0107V26.01H85.8467V24.876C85.8467 21.936 87.2747 20.76 90.6767 18.618L91.3487 18.198C94.3307 16.35 96.2207 13.2 96.2207 8.37V7.74C96.2207 2.91 93.5747 0.179998 88.9967 0.179998C84.3767 0.179998 81.6467 2.994 81.6467 7.74V12.36ZM98.4641 7.74V22.86C98.4641 28.11 101.572 30.42 105.772 30.42C110.056 30.42 113.248 28.068 113.248 22.86V7.74C113.248 2.532 110.056 0.179998 105.772 0.179998C101.572 0.179998 98.4641 2.448 98.4641 7.74ZM102.664 7.446C102.664 4.758 104.218 3.834 105.856 3.834C107.452 3.834 109.048 4.758 109.048 7.446V23.154C109.048 25.842 107.452 26.766 105.856 26.766C104.218 26.766 102.664 25.842 102.664 23.154V7.446ZM115.362 12.36H119.562V7.446C119.562 5.178 120.696 3.834 122.67 3.834C124.602 3.834 125.736 5.178 125.736 7.446V9.924C125.736 12.906 124.308 13.998 121.2 15.93L120.57 16.308C117.126 18.492 115.362 20.466 115.362 25.632V30H129.726V26.01H119.562V24.876C119.562 21.936 120.99 20.76 124.392 18.618L125.064 18.198C128.046 16.35 129.936 13.2 129.936 8.37V7.74C129.936 2.91 127.29 0.179998 122.712 0.179998C118.092 0.179998 115.362 2.994 115.362 7.74V12.36ZM142.721 7.446V9C142.721 12.318 141.587 13.662 138.269 13.662H137.303V16.896H138.269C141.713 16.896 142.721 18.114 142.721 21.558V23.154C142.721 25.464 141.545 26.766 139.529 26.766C137.513 26.766 136.337 25.464 136.337 23.154V19.92H132.137V22.86C132.137 27.606 134.909 30.42 139.613 30.42C144.233 30.42 146.921 27.69 146.921 22.86V22.23C146.921 17.946 145.157 15.762 142.763 15.384V15.09C145.115 14.628 146.921 12.528 146.921 8.328V7.74C146.921 2.91 144.233 0.179998 139.613 0.179998C134.909 0.179998 132.137 2.994 132.137 7.74V10.68H136.337V7.446C136.337 5.136 137.513 3.834 139.529 3.834C141.545 3.834 142.721 5.136 142.721 7.446Z" fill="url(#paint0_linear_89_127)" fill-opacity="0.6"/>
<path d="M0.107625 12.36H4.30763V7.446C4.30763 5.178 5.44163 3.834 7.41563 3.834C9.34763 3.834 10.4816 5.178 10.4816 7.446V9.924C10.4816 12.906 9.05363 13.998 5.94563 15.93L5.31563 16.308C1.87163 18.492 0.107625 20.466 0.107625 25.632V30H14.4716V26.01H4.30763V24.876C4.30763 21.936 5.73563 20.76 9.13763 18.618L9.80962 18.198C12.7916 16.35 14.6816 13.2 14.6816 8.37V7.74C14.6816 2.91 12.0356 0.179998 7.45763 0.179998C2.83763 0.179998 0.107625 2.994 0.107625 7.74V12.36ZM16.925 7.74V22.86C16.925 28.11 20.033 30.42 24.233 30.42C28.517 30.42 31.709 28.068 31.709 22.86V7.74C31.709 2.532 28.517 0.179998 24.233 0.179998C20.033 0.179998 16.925 2.448 16.925 7.74ZM21.125 7.446C21.125 4.758 22.679 3.834 24.317 3.834C25.913 3.834 27.509 4.758 27.509 7.446V23.154C27.509 25.842 25.913 26.766 24.317 26.766C22.679 26.766 21.125 25.842 21.125 23.154V7.446ZM33.8225 12.36H38.0225V7.446C38.0225 5.178 39.1565 3.834 41.1305 3.834C43.0625 3.834 44.1965 5.178 44.1965 7.446V9.924C44.1965 12.906 42.7685 13.998 39.6605 15.93L39.0305 16.308C35.5865 18.492 33.8225 20.466 33.8225 25.632V30H48.1865V26.01H38.0225V24.876C38.0225 21.936 39.4505 20.76 42.8525 18.618L43.5245 18.198C46.5065 16.35 48.3965 13.2 48.3965 8.37V7.74C48.3965 2.91 45.7505 0.179998 41.1725 0.179998C36.5525 0.179998 33.8225 2.994 33.8225 7.74V12.36ZM50.5979 12.36H54.7979V7.446C54.7979 5.178 55.9319 3.834 57.9059 3.834C59.8379 3.834 60.9719 5.178 60.9719 7.446V9.924C60.9719 12.906 59.5439 13.998 56.4359 15.93L55.8059 16.308C52.3619 18.492 50.5979 20.466 50.5979 25.632V30H64.9619V26.01H54.7979V24.876C54.7979 21.936 56.2259 20.76 59.6279 18.618L60.2999 18.198C63.2819 16.35 65.1719 13.2 65.1719 8.37V7.74C65.1719 2.91 62.5259 0.179998 57.9479 0.179998C53.3279 0.179998 50.5979 2.994 50.5979 7.74V12.36ZM67.5833 16.392L76.4873 18.702V18.996L67.5833 21.39V25.212L79.2593 20.298V17.358L67.5833 12.528V16.392ZM81.6467 12.36H85.8467V7.446C85.8467 5.178 86.9807 3.834 88.9547 3.834C90.8867 3.834 92.0207 5.178 92.0207 7.446V9.924C92.0207 12.906 90.5927 13.998 87.4847 15.93L86.8547 16.308C83.4107 18.492 81.6467 20.466 81.6467 25.632V30H96.0107V26.01H85.8467V24.876C85.8467 21.936 87.2747 20.76 90.6767 18.618L91.3487 18.198C94.3307 16.35 96.2207 13.2 96.2207 8.37V7.74C96.2207 2.91 93.5747 0.179998 88.9967 0.179998C84.3767 0.179998 81.6467 2.994 81.6467 7.74V12.36ZM98.4641 7.74V22.86C98.4641 28.11 101.572 30.42 105.772 30.42C110.056 30.42 113.248 28.068 113.248 22.86V7.74C113.248 2.532 110.056 0.179998 105.772 0.179998C101.572 0.179998 98.4641 2.448 98.4641 7.74ZM102.664 7.446C102.664 4.758 104.218 3.834 105.856 3.834C107.452 3.834 109.048 4.758 109.048 7.446V23.154C109.048 25.842 107.452 26.766 105.856 26.766C104.218 26.766 102.664 25.842 102.664 23.154V7.446ZM115.362 12.36H119.562V7.446C119.562 5.178 120.696 3.834 122.67 3.834C124.602 3.834 125.736 5.178 125.736 7.446V9.924C125.736 12.906 124.308 13.998 121.2 15.93L120.57 16.308C117.126 18.492 115.362 20.466 115.362 25.632V30H129.726V26.01H119.562V24.876C119.562 21.936 120.99 20.76 124.392 18.618L125.064 18.198C128.046 16.35 129.936 13.2 129.936 8.37V7.74C129.936 2.91 127.29 0.179998 122.712 0.179998C118.092 0.179998 115.362 2.994 115.362 7.74V12.36ZM142.721 7.446V9C142.721 12.318 141.587 13.662 138.269 13.662H137.303V16.896H138.269C141.713 16.896 142.721 18.114 142.721 21.558V23.154C142.721 25.464 141.545 26.766 139.529 26.766C137.513 26.766 136.337 25.464 136.337 23.154V19.92H132.137V22.86C132.137 27.606 134.909 30.42 139.613 30.42C144.233 30.42 146.921 27.69 146.921 22.86V22.23C146.921 17.946 145.157 15.762 142.763 15.384V15.09C145.115 14.628 146.921 12.528 146.921 8.328V7.74C146.921 2.91 144.233 0.179998 139.613 0.179998C134.909 0.179998 132.137 2.994 132.137 7.74V10.68H136.337V7.446C136.337 5.136 137.513 3.834 139.529 3.834C141.545 3.834 142.721 5.136 142.721 7.446Z" fill="url(#paint1_linear_89_127)" fill-opacity="0.6"/>
<defs>
<linearGradient id="paint0_linear_89_127" x1="-1" y1="-4" x2="76.8576" y2="27.7722" gradientUnits="userSpaceOnUse">
<stop stop-color="#FF6161"/>
<stop offset="1" stop-color="#FF6161" stop-opacity="0"/>
</linearGradient>
<linearGradient id="paint1_linear_89_127" x1="148" y1="26.2703" x2="51.8198" y2="24.3371" gradientUnits="userSpaceOnUse">
<stop stop-color="#75BFF3"/>
<stop offset="1" stop-color="#75BFF3" stop-opacity="0"/>
</linearGradient>
</defs>
</svg>
