<svg width="289" height="29" viewBox="0 0 289 29" fill="none" xmlns="http://www.w3.org/2000/svg">
<path d="M10.2969 24.5625C7.39062 24.5625 5.05729 23.9531 3.29688 22.7344C1.53646 21.5052 0.65625 19.8906 0.65625 17.8906C0.65625 16.3698 1.16667 15.0833 2.1875 14.0312C3.21875 12.9688 4.55729 12.3333 6.20312 12.125V12.0156C4.82812 11.7448 3.70833 11.1354 2.84375 10.1875C1.98958 9.23958 1.5625 8.13021 1.5625 6.85938C1.5625 5.11979 2.375 3.69271 4 2.57812C5.63542 1.45312 7.73438 0.890625 10.2969 0.890625C12.8698 0.890625 14.9688 1.45312 16.5938 2.57812C18.2188 3.70312 19.0312 5.13542 19.0312 6.875C19.0312 8.125 18.6042 9.22917 17.75 10.1875C16.8958 11.1354 15.7865 11.7448 14.4219 12.0156V12.125C16.0677 12.3438 17.401 12.9844 18.4219 14.0469C19.4427 15.099 19.9531 16.3854 19.9531 17.9062C19.9531 19.8958 19.0625 21.5052 17.2812 22.7344C15.5104 23.9531 13.1823 24.5625 10.2969 24.5625ZM10.2969 20.625C11.3698 20.625 12.2448 20.3281 12.9219 19.7344C13.599 19.1302 13.9375 18.375 13.9375 17.4688C13.9375 16.5625 13.599 15.8125 12.9219 15.2188C12.2448 14.625 11.3698 14.3281 10.2969 14.3281C9.23438 14.3281 8.36458 14.625 7.6875 15.2188C7.01042 15.8125 6.67188 16.5625 6.67188 17.4688C6.67188 18.375 7.01042 19.1302 7.6875 19.7344C8.36458 20.3281 9.23438 20.625 10.2969 20.625ZM10.2969 10.3906C11.1927 10.3906 11.9323 10.125 12.5156 9.59375C13.099 9.0625 13.3906 8.40104 13.3906 7.60938C13.3906 6.80729 13.099 6.14062 12.5156 5.60938C11.9323 5.07812 11.1927 4.8125 10.2969 4.8125C9.41146 4.8125 8.67708 5.07812 8.09375 5.60938C7.51042 6.14062 7.21875 6.80729 7.21875 7.60938C7.21875 8.40104 7.51042 9.0625 8.09375 9.59375C8.67708 10.125 9.41146 10.3906 10.2969 10.3906ZM30.2031 15.1562C30.2031 12.3646 30.5833 9.85417 31.3438 7.625C32.1146 5.39583 33.3125 3.33854 34.9375 1.45312H40.1406C38.9427 2.85938 37.9375 4.84896 37.125 7.42188C36.3229 9.98438 35.9219 12.5573 35.9219 15.1406C35.9219 17.7135 36.3229 20.2917 37.125 22.875C37.9375 25.4479 38.9427 27.4479 40.1406 28.875H34.9375C33.3021 26.9583 32.1042 24.8854 31.3438 22.6562C30.5833 20.4271 30.2031 17.9271 30.2031 15.1562ZM51.5156 24.5625C48.6094 24.5625 46.276 23.9531 44.5156 22.7344C42.7552 21.5052 41.875 19.8906 41.875 17.8906C41.875 16.3698 42.3854 15.0833 43.4062 14.0312C44.4375 12.9688 45.776 12.3333 47.4219 12.125V12.0156C46.0469 11.7448 44.9271 11.1354 44.0625 10.1875C43.2083 9.23958 42.7812 8.13021 42.7812 6.85938C42.7812 5.11979 43.5938 3.69271 45.2188 2.57812C46.8542 1.45312 48.9531 0.890625 51.5156 0.890625C54.0885 0.890625 56.1875 1.45312 57.8125 2.57812C59.4375 3.70312 60.25 5.13542 60.25 6.875C60.25 8.125 59.8229 9.22917 58.9688 10.1875C58.1146 11.1354 57.0052 11.7448 55.6406 12.0156V12.125C57.2865 12.3438 58.6198 12.9844 59.6406 14.0469C60.6615 15.099 61.1719 16.3854 61.1719 17.9062C61.1719 19.8958 60.2812 21.5052 58.5 22.7344C56.7292 23.9531 54.401 24.5625 51.5156 24.5625ZM51.5156 20.625C52.5885 20.625 53.4635 20.3281 54.1406 19.7344C54.8177 19.1302 55.1562 18.375 55.1562 17.4688C55.1562 16.5625 54.8177 15.8125 54.1406 15.2188C53.4635 14.625 52.5885 14.3281 51.5156 14.3281C50.4531 14.3281 49.5833 14.625 48.9062 15.2188C48.2292 15.8125 47.8906 16.5625 47.8906 17.4688C47.8906 18.375 48.2292 19.1302 48.9062 19.7344C49.5833 20.3281 50.4531 20.625 51.5156 20.625ZM51.5156 10.3906C52.4115 10.3906 53.151 10.125 53.7344 9.59375C54.3177 9.0625 54.6094 8.40104 54.6094 7.60938C54.6094 6.80729 54.3177 6.14062 53.7344 5.60938C53.151 5.07812 52.4115 4.8125 51.5156 4.8125C50.6302 4.8125 49.8958 5.07812 49.3125 5.60938C48.7292 6.14062 48.4375 6.80729 48.4375 7.60938C48.4375 8.40104 48.7292 9.0625 49.3125 9.59375C49.8958 10.125 50.6302 10.3906 51.5156 10.3906ZM73.3438 24.5625C71.7604 24.5625 70.3229 24.25 69.0312 23.625C67.7396 23 66.6823 22.099 65.8594 20.9219C64.3177 18.8906 63.5469 16.1875 63.5469 12.8125C63.5469 9.11458 64.4271 6.20312 66.1875 4.07812C67.9583 1.95312 70.349 0.890625 73.3594 0.890625C75.6302 0.890625 77.5729 1.48958 79.1875 2.6875C80.8125 3.88542 81.776 5.43229 82.0781 7.32812H76.5C76.3125 6.71354 75.9271 6.21875 75.3438 5.84375C74.7708 5.46875 74.1042 5.28125 73.3438 5.28125C71.9167 5.28125 70.8021 5.95312 70 7.29688C69.1979 8.63021 68.8542 10.4375 68.9688 12.7188H69.0781C69.5156 11.5938 70.2448 10.7031 71.2656 10.0469C72.2865 9.38021 73.5104 9.04688 74.9375 9.04688C77.0625 9.04688 78.8281 9.75 80.2344 11.1562C81.651 12.5625 82.3594 14.3333 82.3594 16.4688C82.3594 18.8438 81.5156 20.7865 79.8281 22.2969C78.1406 23.8073 75.9792 24.5625 73.3438 24.5625ZM73.2812 20.1406C74.2812 20.1406 75.125 19.8021 75.8125 19.125C76.5104 18.4479 76.8594 17.6198 76.8594 16.6406C76.8594 15.651 76.5156 14.8229 75.8281 14.1562C75.151 13.4896 74.3073 13.1562 73.2969 13.1562C72.2865 13.1562 71.4375 13.4896 70.75 14.1562C70.0729 14.8229 69.7344 15.6458 69.7344 16.625C69.7344 17.6146 70.0781 18.4479 70.7656 19.125C71.4531 19.8021 72.2917 20.1406 73.2812 20.1406ZM90.6562 24V6.48438H90.5469L84.9062 10.2969V5.35938L90.6406 1.45312H96.3594V24H90.6562ZM110.062 15.1562C110.062 18.0312 109.667 20.5781 108.875 22.7969C108.083 25.0052 106.901 27.0312 105.328 28.875H100.109C101.255 27.5 102.245 25.5469 103.078 23.0156C103.911 20.474 104.328 17.849 104.328 15.1406C104.328 12.4219 103.911 9.80208 103.078 7.28125C102.245 4.75 101.255 2.80729 100.109 1.45312H105.328C106.901 3.26562 108.083 5.28125 108.875 7.5C109.667 9.70833 110.062 12.2604 110.062 15.1562ZM120.188 8.39062C120.188 6.16146 120.995 4.35417 122.609 2.96875C124.224 1.58333 126.344 0.890625 128.969 0.890625C131.51 0.890625 133.552 1.51042 135.094 2.75C136.646 3.98958 137.422 5.60417 137.422 7.59375C137.422 8.15625 137.333 8.72396 137.156 9.29688C136.979 9.85938 136.771 10.3594 136.531 10.7969C136.292 11.224 135.964 11.6927 135.547 12.2031C135.141 12.7031 134.792 13.1042 134.5 13.4062C134.208 13.6979 133.828 14.0677 133.359 14.5156L127.969 19.4844V19.5938H137.703V24H120.516V20.1719L129.312 12.0781C130.26 11.1719 130.922 10.4062 131.297 9.78125C131.682 9.14583 131.875 8.47917 131.875 7.78125C131.875 7.05208 131.589 6.44271 131.016 5.95312C130.443 5.45312 129.698 5.20312 128.781 5.20312C127.812 5.20312 127.01 5.50521 126.375 6.10938C125.75 6.70312 125.438 7.46354 125.438 8.39062V8.5H120.188V8.39062ZM146.031 24V6.48438H145.922L140.281 10.2969V5.35938L146.016 1.45312H151.734V24H146.031ZM162.406 14.4531V10.5H165.141C166.109 10.5 166.885 10.2552 167.469 9.76562C168.052 9.26562 168.344 8.60938 168.344 7.79688C168.344 6.97396 168.057 6.32812 167.484 5.85938C166.911 5.39062 166.115 5.15625 165.094 5.15625C164.115 5.15625 163.318 5.42708 162.703 5.96875C162.089 6.51042 161.766 7.21875 161.734 8.09375H156.547C156.589 5.91667 157.411 4.17188 159.016 2.85938C160.62 1.54688 162.729 0.890625 165.344 0.890625C167.854 0.890625 169.865 1.44792 171.375 2.5625C172.896 3.67708 173.656 5.16146 173.656 7.01562C173.656 8.35938 173.224 9.5 172.359 10.4375C171.495 11.375 170.365 11.9688 168.969 12.2188V12.3438C170.656 12.5 171.995 13.0573 172.984 14.0156C173.984 14.974 174.484 16.2188 174.484 17.75C174.484 19.8125 173.625 21.4635 171.906 22.7031C170.198 23.9427 167.938 24.5625 165.125 24.5625C162.49 24.5625 160.354 23.901 158.719 22.5781C157.094 21.2552 156.224 19.4948 156.109 17.2969H161.578C161.63 18.151 161.979 18.8281 162.625 19.3281C163.271 19.8177 164.135 20.0625 165.219 20.0625C166.24 20.0625 167.068 19.8073 167.703 19.2969C168.349 18.776 168.672 18.099 168.672 17.2656C168.672 16.3906 168.359 15.7031 167.734 15.2031C167.109 14.7031 166.25 14.4531 165.156 14.4531H162.406Z" fill="#800004"/>
<path d="M10.2969 24.5625C7.39062 24.5625 5.05729 23.9531 3.29688 22.7344C1.53646 21.5052 0.65625 19.8906 0.65625 17.8906C0.65625 16.3698 1.16667 15.0833 2.1875 14.0312C3.21875 12.9688 4.55729 12.3333 6.20312 12.125V12.0156C4.82812 11.7448 3.70833 11.1354 2.84375 10.1875C1.98958 9.23958 1.5625 8.13021 1.5625 6.85938C1.5625 5.11979 2.375 3.69271 4 2.57812C5.63542 1.45312 7.73438 0.890625 10.2969 0.890625C12.8698 0.890625 14.9688 1.45312 16.5938 2.57812C18.2188 3.70312 19.0312 5.13542 19.0312 6.875C19.0312 8.125 18.6042 9.22917 17.75 10.1875C16.8958 11.1354 15.7865 11.7448 14.4219 12.0156V12.125C16.0677 12.3438 17.401 12.9844 18.4219 14.0469C19.4427 15.099 19.9531 16.3854 19.9531 17.9062C19.9531 19.8958 19.0625 21.5052 17.2812 22.7344C15.5104 23.9531 13.1823 24.5625 10.2969 24.5625ZM10.2969 20.625C11.3698 20.625 12.2448 20.3281 12.9219 19.7344C13.599 19.1302 13.9375 18.375 13.9375 17.4688C13.9375 16.5625 13.599 15.8125 12.9219 15.2188C12.2448 14.625 11.3698 14.3281 10.2969 14.3281C9.23438 14.3281 8.36458 14.625 7.6875 15.2188C7.01042 15.8125 6.67188 16.5625 6.67188 17.4688C6.67188 18.375 7.01042 19.1302 7.6875 19.7344C8.36458 20.3281 9.23438 20.625 10.2969 20.625ZM10.2969 10.3906C11.1927 10.3906 11.9323 10.125 12.5156 9.59375C13.099 9.0625 13.3906 8.40104 13.3906 7.60938C13.3906 6.80729 13.099 6.14062 12.5156 5.60938C11.9323 5.07812 11.1927 4.8125 10.2969 4.8125C9.41146 4.8125 8.67708 5.07812 8.09375 5.60938C7.51042 6.14062 7.21875 6.80729 7.21875 7.60938C7.21875 8.40104 7.51042 9.0625 8.09375 9.59375C8.67708 10.125 9.41146 10.3906 10.2969 10.3906ZM30.2031 15.1562C30.2031 12.3646 30.5833 9.85417 31.3438 7.625C32.1146 5.39583 33.3125 3.33854 34.9375 1.45312H40.1406C38.9427 2.85938 37.9375 4.84896 37.125 7.42188C36.3229 9.98438 35.9219 12.5573 35.9219 15.1406C35.9219 17.7135 36.3229 20.2917 37.125 22.875C37.9375 25.4479 38.9427 27.4479 40.1406 28.875H34.9375C33.3021 26.9583 32.1042 24.8854 31.3438 22.6562C30.5833 20.4271 30.2031 17.9271 30.2031 15.1562ZM51.5156 24.5625C48.6094 24.5625 46.276 23.9531 44.5156 22.7344C42.7552 21.5052 41.875 19.8906 41.875 17.8906C41.875 16.3698 42.3854 15.0833 43.4062 14.0312C44.4375 12.9688 45.776 12.3333 47.4219 12.125V12.0156C46.0469 11.7448 44.9271 11.1354 44.0625 10.1875C43.2083 9.23958 42.7812 8.13021 42.7812 6.85938C42.7812 5.11979 43.5938 3.69271 45.2188 2.57812C46.8542 1.45312 48.9531 0.890625 51.5156 0.890625C54.0885 0.890625 56.1875 1.45312 57.8125 2.57812C59.4375 3.70312 60.25 5.13542 60.25 6.875C60.25 8.125 59.8229 9.22917 58.9688 10.1875C58.1146 11.1354 57.0052 11.7448 55.6406 12.0156V12.125C57.2865 12.3438 58.6198 12.9844 59.6406 14.0469C60.6615 15.099 61.1719 16.3854 61.1719 17.9062C61.1719 19.8958 60.2812 21.5052 58.5 22.7344C56.7292 23.9531 54.401 24.5625 51.5156 24.5625ZM51.5156 20.625C52.5885 20.625 53.4635 20.3281 54.1406 19.7344C54.8177 19.1302 55.1562 18.375 55.1562 17.4688C55.1562 16.5625 54.8177 15.8125 54.1406 15.2188C53.4635 14.625 52.5885 14.3281 51.5156 14.3281C50.4531 14.3281 49.5833 14.625 48.9062 15.2188C48.2292 15.8125 47.8906 16.5625 47.8906 17.4688C47.8906 18.375 48.2292 19.1302 48.9062 19.7344C49.5833 20.3281 50.4531 20.625 51.5156 20.625ZM51.5156 10.3906C52.4115 10.3906 53.151 10.125 53.7344 9.59375C54.3177 9.0625 54.6094 8.40104 54.6094 7.60938C54.6094 6.80729 54.3177 6.14062 53.7344 5.60938C53.151 5.07812 52.4115 4.8125 51.5156 4.8125C50.6302 4.8125 49.8958 5.07812 49.3125 5.60938C48.7292 6.14062 48.4375 6.80729 48.4375 7.60938C48.4375 8.40104 48.7292 9.0625 49.3125 9.59375C49.8958 10.125 50.6302 10.3906 51.5156 10.3906ZM73.3438 24.5625C71.7604 24.5625 70.3229 24.25 69.0312 23.625C67.7396 23 66.6823 22.099 65.8594 20.9219C64.3177 18.8906 63.5469 16.1875 63.5469 12.8125C63.5469 9.11458 64.4271 6.20312 66.1875 4.07812C67.9583 1.95312 70.349 0.890625 73.3594 0.890625C75.6302 0.890625 77.5729 1.48958 79.1875 2.6875C80.8125 3.88542 81.776 5.43229 82.0781 7.32812H76.5C76.3125 6.71354 75.9271 6.21875 75.3438 5.84375C74.7708 5.46875 74.1042 5.28125 73.3438 5.28125C71.9167 5.28125 70.8021 5.95312 70 7.29688C69.1979 8.63021 68.8542 10.4375 68.9688 12.7188H69.0781C69.5156 11.5938 70.2448 10.7031 71.2656 10.0469C72.2865 9.38021 73.5104 9.04688 74.9375 9.04688C77.0625 9.04688 78.8281 9.75 80.2344 11.1562C81.651 12.5625 82.3594 14.3333 82.3594 16.4688C82.3594 18.8438 81.5156 20.7865 79.8281 22.2969C78.1406 23.8073 75.9792 24.5625 73.3438 24.5625ZM73.2812 20.1406C74.2812 20.1406 75.125 19.8021 75.8125 19.125C76.5104 18.4479 76.8594 17.6198 76.8594 16.6406C76.8594 15.651 76.5156 14.8229 75.8281 14.1562C75.151 13.4896 74.3073 13.1562 73.2969 13.1562C72.2865 13.1562 71.4375 13.4896 70.75 14.1562C70.0729 14.8229 69.7344 15.6458 69.7344 16.625C69.7344 17.6146 70.0781 18.4479 70.7656 19.125C71.4531 19.8021 72.2917 20.1406 73.2812 20.1406ZM90.6562 24V6.48438H90.5469L84.9062 10.2969V5.35938L90.6406 1.45312H96.3594V24H90.6562ZM110.062 15.1562C110.062 18.0312 109.667 20.5781 108.875 22.7969C108.083 25.0052 106.901 27.0312 105.328 28.875H100.109C101.255 27.5 102.245 25.5469 103.078 23.0156C103.911 20.474 104.328 17.849 104.328 15.1406C104.328 12.4219 103.911 9.80208 103.078 7.28125C102.245 4.75 101.255 2.80729 100.109 1.45312H105.328C106.901 3.26562 108.083 5.28125 108.875 7.5C109.667 9.70833 110.062 12.2604 110.062 15.1562ZM120.188 8.39062C120.188 6.16146 120.995 4.35417 122.609 2.96875C124.224 1.58333 126.344 0.890625 128.969 0.890625C131.51 0.890625 133.552 1.51042 135.094 2.75C136.646 3.98958 137.422 5.60417 137.422 7.59375C137.422 8.15625 137.333 8.72396 137.156 9.29688C136.979 9.85938 136.771 10.3594 136.531 10.7969C136.292 11.224 135.964 11.6927 135.547 12.2031C135.141 12.7031 134.792 13.1042 134.5 13.4062C134.208 13.6979 133.828 14.0677 133.359 14.5156L127.969 19.4844V19.5938H137.703V24H120.516V20.1719L129.312 12.0781C130.26 11.1719 130.922 10.4062 131.297 9.78125C131.682 9.14583 131.875 8.47917 131.875 7.78125C131.875 7.05208 131.589 6.44271 131.016 5.95312C130.443 5.45312 129.698 5.20312 128.781 5.20312C127.812 5.20312 127.01 5.50521 126.375 6.10938C125.75 6.70312 125.438 7.46354 125.438 8.39062V8.5H120.188V8.39062ZM146.031 24V6.48438H145.922L140.281 10.2969V5.35938L146.016 1.45312H151.734V24H146.031ZM162.406 14.4531V10.5H165.141C166.109 10.5 166.885 10.2552 167.469 9.76562C168.052 9.26562 168.344 8.60938 168.344 7.79688C168.344 6.97396 168.057 6.32812 167.484 5.85938C166.911 5.39062 166.115 5.15625 165.094 5.15625C164.115 5.15625 163.318 5.42708 162.703 5.96875C162.089 6.51042 161.766 7.21875 161.734 8.09375H156.547C156.589 5.91667 157.411 4.17188 159.016 2.85938C160.62 1.54688 162.729 0.890625 165.344 0.890625C167.854 0.890625 169.865 1.44792 171.375 2.5625C172.896 3.67708 173.656 5.16146 173.656 7.01562C173.656 8.35938 173.224 9.5 172.359 10.4375C171.495 11.375 170.365 11.9688 168.969 12.2188V12.3438C170.656 12.5 171.995 13.0573 172.984 14.0156C173.984 14.974 174.484 16.2188 174.484 17.75C174.484 19.8125 173.625 21.4635 171.906 22.7031C170.198 23.9427 167.938 24.5625 165.125 24.5625C162.49 24.5625 160.354 23.901 158.719 22.5781C157.094 21.2552 156.224 19.4948 156.109 17.2969H161.578C161.63 18.151 161.979 18.8281 162.625 19.3281C163.271 19.8177 164.135 20.0625 165.219 20.0625C166.24 20.0625 167.068 19.8073 167.703 19.2969C168.349 18.776 168.672 18.099 168.672 17.2656C168.672 16.3906 168.359 15.7031 167.734 15.2031C167.109 14.7031 166.25 14.4531 165.156 14.4531H162.406Z" fill="url(#paint0_linear_5_3192)" fill-opacity="0.6"/>
<path d="M188.078 17.2031H177.797V12.4531H188.078V17.2031ZM200.422 24.5625C198.13 24.5625 196.167 23.9635 194.531 22.7656C192.906 21.5573 191.948 20.0052 191.656 18.1094H197.25C197.438 18.724 197.828 19.224 198.422 19.6094C199.026 19.9844 199.724 20.1719 200.516 20.1719C201.922 20.1719 203.016 19.5104 203.797 18.1875C204.589 16.8646 204.922 15.0365 204.797 12.7031H204.75H204.719H204.703C204.318 13.8281 203.609 14.724 202.578 15.3906C201.557 16.0573 200.312 16.3906 198.844 16.3906C196.719 16.3906 194.938 15.6875 193.5 14.2812C192.073 12.875 191.359 11.1042 191.359 8.96875C191.359 6.61458 192.214 4.68229 193.922 3.17188C195.63 1.65104 197.797 0.890625 200.422 0.890625C202.026 0.890625 203.474 1.20312 204.766 1.82812C206.068 2.44271 207.135 3.33854 207.969 4.51562C209.51 6.54688 210.281 9.25 210.281 12.625C210.281 16.3333 209.406 19.25 207.656 21.375C205.906 23.5 203.495 24.5625 200.422 24.5625ZM200.484 12.2656C201.484 12.2656 202.323 11.9375 203 11.2812C203.688 10.6146 204.031 9.79167 204.031 8.8125C204.031 7.82292 203.688 6.98958 203 6.3125C202.323 5.625 201.49 5.28125 200.5 5.28125C199.5 5.28125 198.651 5.625 197.953 6.3125C197.255 6.98958 196.906 7.81771 196.906 8.79688C196.906 9.78646 197.25 10.6146 197.938 11.2812C198.625 11.9375 199.474 12.2656 200.484 12.2656ZM223.734 24V20.3438H212.594V15.5469C213.604 13.599 214.76 11.5521 216.062 9.40625C217.375 7.25 219.083 4.59896 221.188 1.45312H229.156V15.875H231.969V20.3438H229.156V24H223.734ZM217.453 15.9219V16.0781H223.891V5.32812H223.781C222.271 7.57812 221.052 9.46875 220.125 11C219.208 12.5208 218.318 14.1615 217.453 15.9219ZM245.297 17.2031H235.016V12.4531H245.297V17.2031ZM254.75 14.4531V10.5H257.484C258.453 10.5 259.229 10.2552 259.812 9.76562C260.396 9.26562 260.688 8.60938 260.688 7.79688C260.688 6.97396 260.401 6.32812 259.828 5.85938C259.255 5.39062 258.458 5.15625 257.438 5.15625C256.458 5.15625 255.661 5.42708 255.047 5.96875C254.432 6.51042 254.109 7.21875 254.078 8.09375H248.891C248.932 5.91667 249.755 4.17188 251.359 2.85938C252.964 1.54688 255.073 0.890625 257.688 0.890625C260.198 0.890625 262.208 1.44792 263.719 2.5625C265.24 3.67708 266 5.16146 266 7.01562C266 8.35938 265.568 9.5 264.703 10.4375C263.839 11.375 262.708 11.9688 261.312 12.2188V12.3438C263 12.5 264.339 13.0573 265.328 14.0156C266.328 14.974 266.828 16.2188 266.828 17.75C266.828 19.8125 265.969 21.4635 264.25 22.7031C262.542 23.9427 260.281 24.5625 257.469 24.5625C254.833 24.5625 252.698 23.901 251.062 22.5781C249.438 21.2552 248.568 19.4948 248.453 17.2969H253.922C253.974 18.151 254.323 18.8281 254.969 19.3281C255.615 19.8177 256.479 20.0625 257.562 20.0625C258.583 20.0625 259.411 19.8073 260.047 19.2969C260.693 18.776 261.016 18.099 261.016 17.2656C261.016 16.3906 260.703 15.7031 260.078 15.2031C259.453 14.7031 258.594 14.4531 257.5 14.4531H254.75ZM280.328 24V20.3438H269.188V15.5469C270.198 13.599 271.354 11.5521 272.656 9.40625C273.969 7.25 275.677 4.59896 277.781 1.45312H285.75V15.875H288.562V20.3438H285.75V24H280.328ZM274.047 15.9219V16.0781H280.484V5.32812H280.375C278.865 7.57812 277.646 9.46875 276.719 11C275.802 12.5208 274.911 14.1615 274.047 15.9219Z" fill="#424249"/>
<defs>
<linearGradient id="paint0_linear_5_3192" x1="94" y1="6" x2="95.1797" y2="23.856" gradientUnits="userSpaceOnUse">
<stop stop-color="#EE0062"/>
<stop offset="1" stop-color="#EE0062" stop-opacity="0"/>
</linearGradient>
</defs>
</svg>
