<?xml version="1.0" standalone="no"?>
<!DOCTYPE svg PUBLIC "-//W3C//DTD SVG 20010904//EN"
 "http://www.w3.org/TR/2001/REC-SVG-20010904/DTD/svg10.dtd">
<svg version="1.0" xmlns="http://www.w3.org/2000/svg"
 width="260.000000pt" height="260.000000pt" viewBox="0 0 260.000000 260.000000"
 preserveAspectRatio="xMidYMid meet">
<metadata>
Created by potrace 1.14, written by Peter Selinger 2001-2017
</metadata>
<g transform="translate(0.000000,260.000000) scale(0.100000,-0.100000)"
fill="#000000" stroke="none">
<path d="M339 2586 c-166 -46 -299 -186 -329 -347 -6 -31 -10 -406 -10 -948 0
-725 3 -906 14 -947 45 -170 184 -303 347 -334 31 -6 406 -10 948 -10 725 0
906 3 947 14 170 45 303 184 334 347 6 31 10 406 10 948 0 725 -3 906 -14 947
-45 170 -184 303 -347 334 -82 16 -1842 11 -1900 -4z m1450 -373 c0 -5 -152
-417 -337 -918 l-337 -910 -153 -3 c-83 -1 -152 0 -152 2 0 7 670 1818 676
1828 6 10 304 11 303 1z"/>
</g>
</svg>
